<?xml version="1.0" standalone="no"?><svg xmlns="http://www.w3.org/2000/svg" viewBox="0 0 1440 320"><path fill="#050505" fill-opacity="1" d="M0,192L0,224L60,224L60,224L120,224L120,288L180,288L180,256L240,256L240,160L300,160L300,128L360,128L360,224L420,224L420,128L480,128L480,96L540,96L540,32L600,32L600,32L660,32L660,256L720,256L720,224L780,224L780,256L840,256L840,288L900,288L900,96L960,96L960,256L1020,256L1020,192L1080,192L1080,256L1140,256L1140,128L1200,128L1200,224L1260,224L1260,64L1320,64L1320,192L1380,192L1380,64L1440,64L1440,0L1380,0L1380,0L1320,0L1320,0L1260,0L1260,0L1200,0L1200,0L1140,0L1140,0L1080,0L1080,0L1020,0L1020,0L960,0L960,0L900,0L900,0L840,0L840,0L780,0L780,0L720,0L720,0L660,0L660,0L600,0L600,0L540,0L540,0L480,0L480,0L420,0L420,0L360,0L360,0L300,0L300,0L240,0L240,0L180,0L180,0L120,0L120,0L60,0L60,0L0,0L0,0Z"></path></svg>